<?xml version="1.0" encoding="UTF-8" standalone="no"?>
<svg
   xmlns:i="&amp;#38;ns_ai;"
   xmlns:dc="http://purl.org/dc/elements/1.1/"
   xmlns:cc="http://creativecommons.org/ns#"
   xmlns:rdf="http://www.w3.org/1999/02/22-rdf-syntax-ns#"
   xmlns:svg="http://www.w3.org/2000/svg"
   xmlns="http://www.w3.org/2000/svg"
   xmlns:sodipodi="http://sodipodi.sourceforge.net/DTD/sodipodi-0.dtd"
   xmlns:inkscape="http://www.inkscape.org/namespaces/inkscape"
   version="1.1"
   id="Layer_2"
   x="0px"
   y="0px"
   viewBox="0 0 60 59.999999"
   xml:space="preserve"
   sodipodi:docname="gotify.svg"
   width="60"
   height="60"
   inkscape:version="1.0.2 (e86c870879, 2021-01-15)"><metadata
   id="metadata140"><rdf:RDF><cc:Work
       rdf:about=""><dc:format>image/svg+xml</dc:format><dc:type
         rdf:resource="http://purl.org/dc/dcmitype/StillImage" /><dc:title></dc:title></cc:Work></rdf:RDF></metadata><defs
   id="defs138" /><sodipodi:namedview
   pagecolor="#ffffff"
   bordercolor="#666666"
   borderopacity="1"
   objecttolerance="10"
   gridtolerance="10"
   guidetolerance="10"
   inkscape:pageopacity="0"
   inkscape:pageshadow="2"
   inkscape:window-width="1366"
   inkscape:window-height="704"
   id="namedview136"
   showgrid="false"
   fit-margin-top="0"
   fit-margin-left="0"
   fit-margin-right="0"
   fit-margin-bottom="0"
   inkscape:zoom="1.088"
   inkscape:cx="203.4"
   inkscape:cy="136.54135"
   inkscape:window-x="0"
   inkscape:window-y="27"
   inkscape:window-maximized="1"
   inkscape:current-layer="Layer_2"
   inkscape:document-rotation="0" />
<style
   type="text/css"
   id="style2">
	.st0{fill:#DDCBA2;stroke:#000000;stroke-width:2;stroke-linecap:round;stroke-miterlimit:10;}
	.st1{fill:#71CAEE;stroke:#000000;stroke-width:2;stroke-linecap:round;stroke-miterlimit:10;}
	.st2{fill:#FFFFFF;stroke:#000000;stroke-width:2;stroke-linecap:round;stroke-miterlimit:10;}
	.st3{fill:#888E93;stroke:#000000;stroke-width:2;stroke-linecap:round;stroke-miterlimit:10;}
	.st4{fill:#F0F0F0;stroke:#000000;stroke-width:2;stroke-linecap:round;stroke-miterlimit:10;}
	.st5{fill:none;stroke:#000000;stroke-width:2;stroke-linecap:round;stroke-miterlimit:10;}
	.st6{fill:url(#SVGID_1_);}
	.st7{fill:url(#SVGID_2_);}
	.st8{fill:#FFFFFF;}
	.st9{fill:url(#SVGID_3_);}
	.st10{fill:url(#SVGID_4_);}
	.st11{fill:url(#SVGID_5_);}
	.st12{fill:none;stroke:#FFFFFF;stroke-width:63;stroke-linecap:round;stroke-miterlimit:10;}
	.st13{fill:none;stroke:#FFFFFF;stroke-width:56;stroke-linecap:round;stroke-miterlimit:10;}
	.st14{fill:none;stroke:#A4C639;stroke-width:45.1385;stroke-linecap:round;stroke-miterlimit:10;}
	.st15{fill:none;stroke:#FFFFFF;stroke-width:16;}
	.st16{fill:#A4C639;}
	.st17{fill:#E6E6E6;stroke:#FFFFFF;stroke-width:4;stroke-linecap:round;stroke-linejoin:round;stroke-miterlimit:10;}
	.st18{fill:none;stroke:#FFFFFF;stroke-width:4;stroke-linecap:round;stroke-linejoin:round;stroke-miterlimit:10;}
	.st19{fill:url(#SVGID_6_);}
	.st20{fill:url(#SVGID_7_);}
	.st21{fill:url(#SVGID_8_);}
</style>
<switch
   id="switch133"
   transform="matrix(0.15906442,0,0,0.15906442,-7.4124025,-12.529059)">
	<foreignObject
   requiredExtensions="http://ns.adobe.com/AdobeIllustrator/10.0/"
   x="0"
   y="0"
   width="1"
   height="1">
		
	</foreignObject>
	<g
   i:extraneous="self"
   id="g131">
		<g
   id="g129">
			<path
   class="st0"
   d="m 317.7,376.2 c 6.2,-1.7 15.8,0 19.5,3.2 5.5,4.8 4.9,20.9 1.1,29 -0.8,1.7 -1.8,3.4 -3.2,4.4 -1.4,1 -3.4,1.2 -4.7,0 -1.3,-1.2 -1.7,-3.3 -1.9,-5.2 -0.2,-3.1 -0.2,-6.2 0.3,-9.2 0.2,-1.3 0.2,-2.9 -0.2,-4.2 -0.6,-2.2 -2.5,-3.1 -4.5,-3.5 -3.4,-0.8 -14.3,-0.7 -19.5,-0.7 -0.8,0 1.5,-9.1 2,-9.7 2.6,-2.9 7.5,-3.1 11.1,-4.1 z"
   id="path4" />
			<path
   class="st1"
   d="m 258.9,119.7 c -3,-0.9 -6,-1.8 -9,-2.7 -4.6,-1.4 -9.2,-2.8 -14,-2.5 -2.8,0.2 -6.1,1.3 -6.9,4 -0.6,2 -1.6,7.3 -1.3,7.9 1.5,3.4 13.9,6.7 18.3,6.7"
   id="path6" />
			<path
   d="m 392.6,177.9 c -1.4,1.4 -2.2,3.5 -2.5,5.5 -0.2,1.4 -0.1,3 0.5,4.3 0.6,1.3 1.8,2.3 3.1,3 1.3,0.6 2.8,0.9 4.3,0.9 1.1,0 2.3,-0.1 3.1,-0.9 0.6,-0.7 0.8,-1.6 0.9,-2.5 0.2,-2.3 -0.1,-4.7 -0.9,-6.9 -0.4,-1.1 -0.9,-2.3 -1.8,-3.1 -1.7,-1.8 -4.5,-2.2 -6.4,-0.5 -0.1,0 -0.2,0.1 -0.3,0.2 z"
   id="path8" />
			<path
   class="st2"
   d="m 358.5,164.2 c -1,-1 0,-2.7 1,-3.7 5.8,-5.2 15.1,-4.6 21.8,-0.6 10.9,6.6 15.6,19.9 17.2,32.5 0.6,5.2 0.9,10.6 -0.5,15.7 -1.4,5.1 -4.6,9.9 -9.3,12.1 -1.1,0.5 -2.3,0.9 -3.4,0.5 -1.1,-0.4 -1.9,-1.8 -1.2,-2.8 -9.4,-13.6 -19,-26.8 -20.9,-43.2 -0.5,-4.1 -1.8,-7.4 -4.7,-10.5 z"
   id="path10" />
			<path
   class="st1"
   d="m 134.7,328.4 c -5.1,-3.1 -9.9,-6.6 -14.3,-10.6 -1.3,-1.2 -2.6,-2.5 -2.6,-4.3 0,-1.2 0.6,-2.2 1.2,-3.2 0.8,-1.4 1.7,-2.8 2.5,-4.1 1.1,-1.8 2.9,-3.9 4.9,-3.2 0.9,0.3 1.5,1.1 2,1.8 2.4,3.3 4.9,6.6 7.3,9.8 1.5,2 3.7,4.3 6.1,3.5"
   id="path12" />
			<path
   class="st1"
   d="m 209.6,133 c 33.2,-18 77.8,-19.6 111.5,-8.7 24.3,7.9 43.4,26.7 53.3,50 8.7,20.6 10.5,43.6 8.1,65.7 -4.4,40.2 -20.2,77.9 -40.3,112.6 -11.1,19 -21.8,36 -40.5,48.5 -36.8,24.6 -87.2,22.1 -128.4,11.5 -19.9,-5.1 -39.7,-17.3 -47.2,-37.3 -4.8,-12.8 -4.2,-27.6 1.5,-40 11.6,-24.8 43.2,-38.4 45.6,-67.9 0.7,-8.7 -1.6,-17.3 -3.6,-25.7 -5.6,-23.4 -8.9,-45.8 1.4,-68.7 8.1,-17.7 21.9,-31 38.6,-40 z"
   id="path14" />
			<g
   id="g20">
				<path
   class="st1"
   d="m 189.8,151.4 c -5.4,-5.2 -11.9,-8.8 -19,-10.3 -2.2,-0.5 -4.7,-0.7 -6.9,0.7 -1.8,1.2 -3.1,3.3 -4.2,5.3 -1.6,3 -3,6.2 -4.1,9.4 -0.4,1.2 -0.6,2.5 0,3.5 0.3,0.6 0.9,0.9 1.5,1.2 8.1,4.2 16.8,7.1 25.5,9.8"
   id="path16" />
				<path
   class="st1"
   d="m 183.7,158.7 c -2.5,-1.8 -16.8,-12.1 -18.7,-4.8 -0.4,1.6 0.5,3.9 1.5,4.8"
   id="path18" />
			</g>
			<path
   class="st2"
   d="m 264.5,174.9 c -0.5,0.5 -0.9,1 -1.3,1.6 -9,11.6 -12,27.9 -9.3,42.1 1.7,9 5.9,17.9 13.2,23.4 19.3,14.6 51.5,13.5 68.4,-1.5 24.4,-21.7 13,-67.6 -14,-78.8 -17.6,-7.2 -43.7,-1.6 -57,13.2 z"
   id="path22" />
			<g
   id="g28">
				<path
   class="st2"
   d="m 382.1,237.1 c 1.4,-0.1 2.9,-0.1 4.3,0.1 0.3,0 0.7,0.1 1,0.4 0.2,0.3 0.4,0.7 0.5,1.1 1,3.9 0.5,8.2 0.1,12.4 -0.1,0.9 -0.2,1.8 -0.6,2.6 -1,2.1 -3.1,2.7 -4.7,2.7 -0.1,0 -0.2,0 -0.3,-0.1 -0.3,-0.2 -0.3,-0.7 -0.2,-1.2 0.3,-5.9 -0.1,-11.9 -0.1,-18 0,0.1 0,0.1 0,0 z"
   id="path24" />
				<path
   class="st2"
   d="m 378.7,236.8 c -1.4,0.4 -2.5,2 -2.8,4.4 -0.5,4.4 -0.7,8.9 -0.5,13.4 0,0.9 0.1,1.9 0.5,2.4 0.2,0.3 0.5,0.4 0.8,0.4 1.6,0.3 4.1,-0.6 5.6,-1 0,0 0,-5.2 -0.1,-8 -0.1,-2.8 -0.1,-6.1 -0.2,-8.9 0,-0.6 0,-1.5 0,-2.2 0.1,-0.7 -2.6,-0.7 -3.3,-0.5 z"
   id="path26" />
			</g>
			<path
   class="st0"
   d="m 358.3,231.8 c -0.3,2.2 0.1,4.7 1.7,7.4 2.6,4.4 7,6.1 11.9,5.8 8.9,-0.6 25.3,-5.4 27.5,-15.7 0.6,-3 -0.3,-6.1 -2.2,-8.5 -6.2,-7.8 -17.8,-5.7 -25.6,-2 -5.9,2.7 -12.4,7 -13.3,13 z"
   id="path30" />
			<path
   class="st3"
   d="m 386.4,208.6 c 2.2,1.4 3.7,3.8 4,7 0.3,3.6 -1.4,7.5 -5,8.8 -2.9,1.1 -6.2,0.6 -9.1,-0.4 -2.9,-1 -5.8,-2.8 -6.8,-5.7 -0.7,-2 -0.3,-4.3 0.7,-6.1 1.1,-1.8 2.8,-3.2 4.7,-4.1 3.9,-1.8 8.4,-1.6 11.5,0.5 z"
   id="path32" />
			<path
   class="st0"
   d="m 414.7,262.6 c 2.4,0.6 4.8,2.1 5.6,4.4 0.8,2.3 0.1,4.9 -1.6,6.7 -1.7,1.8 -4.2,2.5 -6.6,2.5 -0.8,0 -1.7,-0.1 -2.4,-0.5 -2.5,-1.1 -3.5,-4 -4.2,-6.6 -1.8,-6.8 3.6,-7.8 9.2,-6.5 z"
   id="path34" />
			<g
   id="g42">
				<path
   class="st4"
   d="m 267.1,284.7 c 2.3,-4.5 141.3,-36.2 144.7,-31.6 3.4,4.5 15.8,88.2 9,90.4 -6.8,2.3 -119.8,37.3 -126.6,35 -6.8,-2.3 -29.4,-89.3 -27.1,-93.8 z"
   id="path36" />
				<path
   class="st5"
   d="m 294.2,378.5 c 0,0 54.3,-74.6 59.9,-76.9 5.7,-2.3 67.3,41.3 67.3,41.3"
   id="path38" />
				<path
   class="st4"
   d="m 267,287.7 c 0,0 86,38.8 91.6,36.6 5.7,-2.3 53.1,-71.2 53.1,-71.2"
   id="path40" />
			</g>
			<g
   id="g65">
				<linearGradient
   id="SVGID_1_"
   gradientUnits="userSpaceOnUse"
   x1="131.11929"
   y1="373.57339"
   x2="103.2589"
   y2="396.95099">
					<stop
   offset="5.152266e-07"
   style="stop-color:#71CAEE"
   id="stop44" />
					<stop
   offset="4.104413e-02"
   style="stop-color:#83CAE2"
   id="stop46" />
					<stop
   offset="0.1206"
   style="stop-color:#9FCACE"
   id="stop48" />
					<stop
   offset="0.2107"
   style="stop-color:#B6CBBE"
   id="stop50" />
					<stop
   offset="0.3139"
   style="stop-color:#C7CBB1"
   id="stop52" />
					<stop
   offset="0.4384"
   style="stop-color:#D4CBA8"
   id="stop54" />
					<stop
   offset="0.6058"
   style="stop-color:#DBCBA3"
   id="stop56" />
					<stop
   offset="1"
   style="stop-color:#DDCBA2"
   id="stop58" />
				</linearGradient>
				<path
   class="st6"
   d="m 132.8,375.6 c -3.5,3.8 -7.3,7.8 -13,9.2 -4.6,1.2 -10,0.2 -13.6,-2.3 -1.4,-1 -2.6,-2.2 -4,-3.2 -1.5,-1 -3.4,-1.7 -5.3,-1.3 -2.7,0.5 -4.1,3.1 -3.6,5.3 2,8.8 17,15.6 27.5,15.5 9,0 19,-4.6 21.4,-11.8"
   id="path61"
   style="fill:url(#SVGID_1_)" />
				<path
   class="st5"
   d="m 132.8,375.6 c -3.5,3.8 -7.3,7.8 -13,9.2 -4.6,1.2 -10,0.2 -13.6,-2.3 -1.4,-1 -2.6,-2.2 -4,-3.2 -1.5,-1 -3.4,-1.7 -5.3,-1.3 -2.7,0.5 -4.1,3.1 -3.6,5.3 2,8.8 17,15.6 27.5,15.5 9,0 19,-4.6 21.4,-11.8"
   id="path63" />
			</g>
			<g
   id="g88">
				<linearGradient
   id="SVGID_2_"
   gradientUnits="userSpaceOnUse"
   x1="265.03339"
   y1="280.2951"
   x2="275.3009"
   y2="302.31369">
					<stop
   offset="5.152266e-07"
   style="stop-color:#71CAEE"
   id="stop67" />
					<stop
   offset="4.104413e-02"
   style="stop-color:#83CAE2"
   id="stop69" />
					<stop
   offset="0.1206"
   style="stop-color:#9FCACE"
   id="stop71" />
					<stop
   offset="0.2107"
   style="stop-color:#B6CBBE"
   id="stop73" />
					<stop
   offset="0.3139"
   style="stop-color:#C7CBB1"
   id="stop75" />
					<stop
   offset="0.4384"
   style="stop-color:#D4CBA8"
   id="stop77" />
					<stop
   offset="0.6058"
   style="stop-color:#DBCBA3"
   id="stop79" />
					<stop
   offset="1"
   style="stop-color:#DDCBA2"
   id="stop81" />
				</linearGradient>
				<path
   class="st7"
   d="m 261.9,283.5 c -0.1,4.2 4.3,7.3 8.4,7.6 4.1,0.3 8.2,-1.3 12.2,-2.6 1.4,-0.4 2.9,-0.8 4.2,-0.2 1.8,0.9 2.7,4.1 1.8,5.9 -0.9,1.8 -3.4,3.5 -5.3,4.4 -6.5,3 -12.9,3.6 -19.9,2 -5.3,-1.2 -11.3,-4.3 -13,-13.5"
   id="path84"
   style="fill:url(#SVGID_2_)" />
				<path
   class="st5"
   d="m 261.9,283.5 c -0.1,4.2 4.3,7.3 8.4,7.6 4.1,0.3 8.2,-1.3 12.2,-2.6 1.4,-0.4 2.9,-0.8 4.2,-0.2 1.8,0.9 2.7,4.1 1.8,5.9 -0.9,1.8 -3.4,3.5 -5.3,4.4 -6.5,3 -12.9,3.6 -19.9,2 -5.3,-1.2 -11.3,-4.3 -13,-13.5"
   id="path86" />
			</g>
			<path
   d="m 318.4,198.4 c -2,-0.3 -4.1,0.1 -5.9,1.3 -3.2,2.1 -4.7,6.2 -4.7,9.9 0,1.9 0.4,3.8 1.4,5.3 1.2,1.7 3.1,2.9 5.2,3.4 3.4,0.8 8.2,0.7 10.5,-2.5 1,-1.5 1.4,-3.3 1.5,-5.1 0.5,-5.7 -1.8,-11.4 -8,-12.3 z"
   id="path90" />
			<path
   class="st8"
   d="m 320.4,203.3 c 0.9,0.3 1.7,0.8 2.1,1.7 0.4,0.8 0.4,1.7 0.3,2.5 -0.1,1 -0.6,2 -1.5,2.7 -0.7,0.5 -1.7,0.7 -2.6,0.5 -0.9,-0.2 -1.7,-0.8 -2.2,-1.6 -1.1,-1.6 -0.9,-4.4 0.9,-5.5 0.9,-0.4 2,-0.6 3,-0.3 z"
   id="path92" />
			<g
   id="g127">
				
					<linearGradient
   id="SVGID_3_"
   gradientUnits="userSpaceOnUse"
   x1="-18.455999"
   y1="252.28551"
   x2="110.3821"
   y2="252.28551"
   gradientTransform="matrix(0.9957,-0.09229364,0.09229364,0.9957,78.9604,-6.0958)">
					<stop
   offset="0"
   style="stop-color:#333333;stop-opacity:0"
   id="stop94" />
					<stop
   offset="0.4767"
   style="stop-color:#575756;stop-opacity:0.2"
   id="stop96" />
					<stop
   offset="0.995"
   style="stop-color:#333333;stop-opacity:1.911551e-03"
   id="stop98" />
					<stop
   offset="1"
   style="stop-color:#333333;stop-opacity:0"
   id="stop100" />
				</linearGradient>
				<path
   class="st9"
   d="m 81.6,222.4 c 0,0 56.5,68.4 123.9,42.4 l 6.6,-29.7 C 150,272.2 82.8,214.3 82.8,214.3 Z"
   id="path103"
   style="fill:url(#SVGID_3_)" />
				
					<linearGradient
   id="SVGID_4_"
   gradientUnits="userSpaceOnUse"
   x1="110.1976"
   y1="262.49319"
   x2="283.73679"
   y2="262.49319"
   gradientTransform="matrix(0.9991,0.04164194,-0.04164194,0.9991,-36.3228,1.0511)">
					<stop
   offset="0"
   style="stop-color:#333333;stop-opacity:0"
   id="stop105" />
					<stop
   offset="0.4767"
   style="stop-color:#575756;stop-opacity:0.2"
   id="stop107" />
					<stop
   offset="0.995"
   style="stop-color:#333333;stop-opacity:1.911551e-03"
   id="stop109" />
					<stop
   offset="1"
   style="stop-color:#333333;stop-opacity:0"
   id="stop111" />
				</linearGradient>
				<path
   class="st10"
   d="m 64.2,234.9 c 0,0 63.1,101.5 157.8,78.9 l 14.2,-38.5 c -89.5,38.3 -168.9,-51 -168.9,-51 z"
   id="path114"
   style="fill:url(#SVGID_4_)" />
				
					<linearGradient
   id="SVGID_5_"
   gradientUnits="userSpaceOnUse"
   x1="218.9673"
   y1="263.5939"
   x2="428.7449"
   y2="263.5939"
   gradientTransform="matrix(0.9869,0.161,-0.161,0.9869,-133.493,-4.5243)">
					<stop
   offset="0"
   style="stop-color:#333333;stop-opacity:0"
   id="stop116" />
					<stop
   offset="0.4767"
   style="stop-color:#575756;stop-opacity:0.2"
   id="stop118" />
					<stop
   offset="0.995"
   style="stop-color:#333333;stop-opacity:1.911551e-03"
   id="stop120" />
					<stop
   offset="1"
   style="stop-color:#333333;stop-opacity:0"
   id="stop122" />
				</linearGradient>
				<path
   class="st11"
   d="m 46.6,251.5 c 0,0 61.1,130.9 178,117.5 l 22.6,-44.2 c -113,33 -195.3,-85.7 -195.3,-85.7 z"
   id="path125"
   style="fill:url(#SVGID_5_)" />
			</g>
		</g>
	</g>
</switch>

</svg>
