<?xml version="1.0" encoding="UTF-8" standalone="no"?>
<svg
   xmlns:dc="http://purl.org/dc/elements/1.1/"
   xmlns:cc="http://creativecommons.org/ns#"
   xmlns:rdf="http://www.w3.org/1999/02/22-rdf-syntax-ns#"
   xmlns:svg="http://www.w3.org/2000/svg"
   xmlns="http://www.w3.org/2000/svg"
   xmlns:sodipodi="http://sodipodi.sourceforge.net/DTD/sodipodi-0.dtd"
   xmlns:inkscape="http://www.inkscape.org/namespaces/inkscape"
   viewBox="0 0 60 60.000003"
   version="1.1"
   id="svg23"
   sodipodi:docname="pihole.svg"
   width="60"
   height="60"
   inkscape:version="1.0.2 (e86c870879, 2021-01-15)">
  <metadata
     id="metadata27">
    <rdf:RDF>
      <cc:Work
         rdf:about="">
        <dc:format>image/svg+xml</dc:format>
        <dc:type
           rdf:resource="http://purl.org/dc/dcmitype/StillImage" />
        <dc:title>NewVortex</dc:title>
      </cc:Work>
    </rdf:RDF>
  </metadata>
  <sodipodi:namedview
     pagecolor="#ffffff"
     bordercolor="#666666"
     borderopacity="1"
     objecttolerance="10"
     gridtolerance="10"
     guidetolerance="10"
     inkscape:pageopacity="0"
     inkscape:pageshadow="2"
     inkscape:window-width="1366"
     inkscape:window-height="704"
     id="namedview25"
     showgrid="false"
     inkscape:zoom="4.1868701"
     inkscape:cx="44.16"
     inkscape:cy="49.381017"
     inkscape:window-x="0"
     inkscape:window-y="27"
     inkscape:window-maximized="1"
     inkscape:current-layer="svg23" />
  <defs
     id="defs9">
    <linearGradient
       id="New_Gradient_Swatch_1"
       x1="2.71"
       x2="69.769997"
       y1="20.040001"
       y2="20.040001"
       gradientUnits="userSpaceOnUse"
       gradientTransform="matrix(0.46178635,0,0,0.46178635,23.767498,34.96505)">
      <stop
         offset="0"
         stop-color="#12b212"
         id="stop2" />
      <stop
         offset="1"
         stop-color="#0f0"
         id="stop4" />
    </linearGradient>
    <style
       id="style7">.cls-2{fill:#980200}.cls-3{fill:red}</style>
  </defs>
  <title
     id="title11">NewVortex</title>
  <g
     id="g857"
     transform="translate(-14.159968,-34.965)">
    <path
       fill="url(#New_Gradient_Swatch_1)"
       d="M 40.650407,53.404179 C 33.160232,52.605288 25.614643,46.943788 25.018939,34.96505 c 11.623162,0 17.838806,6.880616 18.439129,17.783392 C 45.656171,39.670653 55.958624,41.203783 55.958624,41.203783 56.448118,48.615454 50.361773,53.108635 43.458068,53.482682 41.518565,49.395873 29.90002,39.370492 29.90002,39.370492 a 0.03232504,0.03232504 0 0 0 -0.0508,0.03694 c 0,0 11.212172,9.766782 10.801183,13.996745"
       id="path13"
       style="fill:url(#New_Gradient_Swatch_1);stroke-width:0.461786" />
    <path
       d="m 44.159983,94.96495 c -0.725005,-0.04156 -7.490175,-0.300161 -7.901165,-7.901164 -0.332486,-4.617864 3.315626,-8.021229 3.315626,-12.505175 -0.826597,-11.179847 -15.806946,-9.794488 -15.806946,0 a 9.2080198,9.2080198 0 0 0 2.692214,6.529659 l 11.161376,11.165994 a 9.2080198,9.2080198 0 0 0 6.529659,2.692215"
       class="cls-2"
       id="path15"
       style="stroke-width:0.461786" />
    <path
       d="m 64.552468,74.563229 c -0.04156,0.725005 -0.300161,7.490175 -7.901164,7.901165 -4.617864,0.332486 -8.025847,-3.315626 -12.505175,-3.315626 -11.179847,0.826597 -9.794488,15.802329 0,15.802329 a 9.2080198,9.2080198 0 0 0 6.529659,-2.692215 L 61.8464,81.097506 a 9.2080198,9.2080198 0 0 0 2.692214,-6.529659"
       class="cls-3"
       id="path17"
       style="stroke-width:0.461786" />
    <path
       d="m 44.159983,54.170744 c 0.725004,0.04156 7.490174,0.300161 7.901164,7.901165 0.332486,4.617863 -3.315626,8.021228 -3.315626,12.505174 0.826598,11.179847 15.802329,9.794488 15.802329,0 A 9.2080198,9.2080198 0 0 0 61.855636,68.047424 L 50.689642,56.876812 a 9.2080198,9.2080198 0 0 0 -6.529659,-2.692214"
       class="cls-2"
       id="path19"
       style="stroke-width:0.461786" />
    <path
       d="m 23.80444,74.563229 c 0.04156,-0.725004 0.300162,-7.490174 7.901165,-7.901164 4.617863,-0.332486 8.025847,3.315626 12.505174,3.315626 11.179848,-0.840451 9.794489,-15.802329 0,-15.802329 A 9.2080198,9.2080198 0 0 0 37.68112,56.867576 L 26.510508,68.03357 a 9.2080198,9.2080198 0 0 0 -2.692214,6.529659"
       class="cls-3"
       id="path21"
       style="stroke-width:0.461786" />
  </g>
</svg>
