<?xml version="1.0" encoding="UTF-8" standalone="no"?>
<svg
   xmlns:dc="http://purl.org/dc/elements/1.1/"
   xmlns:cc="http://creativecommons.org/ns#"
   xmlns:rdf="http://www.w3.org/1999/02/22-rdf-syntax-ns#"
   xmlns:svg="http://www.w3.org/2000/svg"
   xmlns="http://www.w3.org/2000/svg"
   xmlns:xlink="http://www.w3.org/1999/xlink"
   xmlns:sodipodi="http://sodipodi.sourceforge.net/DTD/sodipodi-0.dtd"
   xmlns:inkscape="http://www.inkscape.org/namespaces/inkscape"
   aria-label="Jellyfin"
   role="img"
   viewBox="0 0 64.000001 63.997967"
   version="1.1"
   id="svg21"
   sodipodi:docname="jellyfin.svg"
   inkscape:version="1.0.2 (e86c870879, 2021-01-15)"
   width="64"
   height="63.997967">
  <metadata
     id="metadata25">
    <rdf:RDF>
      <cc:Work
         rdf:about="">
        <dc:format>image/svg+xml</dc:format>
        <dc:type
           rdf:resource="http://purl.org/dc/dcmitype/StillImage" />
        <dc:title></dc:title>
      </cc:Work>
    </rdf:RDF>
  </metadata>
  <sodipodi:namedview
     pagecolor="#ffffff"
     bordercolor="#666666"
     borderopacity="1"
     objecttolerance="10"
     gridtolerance="10"
     guidetolerance="10"
     inkscape:pageopacity="0"
     inkscape:pageshadow="2"
     inkscape:window-width="1366"
     inkscape:window-height="704"
     id="namedview23"
     showgrid="false"
     inkscape:zoom="0.75130096"
     inkscape:cx="-290.73106"
     inkscape:cy="-50.479524"
     inkscape:window-x="0"
     inkscape:window-y="27"
     inkscape:window-maximized="1"
     inkscape:current-layer="svg21"
     fit-margin-top="0"
     fit-margin-left="0"
     fit-margin-right="0"
     fit-margin-bottom="0"
     inkscape:document-rotation="0" />
  <defs
     id="defs11">
    <path
       d="m 190.56,329.07 c 8.63,17.3 122.4,17.12 130.93,0 8.52,-17.1 -47.9,-119.78 -65.46,-119.8 -17.57,0 -74.1,102.5 -65.47,119.8 z"
       id="A" />
    <linearGradient
       id="B"
       gradientUnits="userSpaceOnUse"
       x1="126.15"
       y1="219.32001"
       x2="457.67999"
       y2="410.73001">
      <stop
         offset="0%"
         stop-color="#aa5cc3"
         id="stop5" />
      <stop
         offset="100%"
         stop-color="#00a4dc"
         id="stop7" />
    </linearGradient>
    <path
       d="m 58.75,417.03 c 25.97,52.15 368.86,51.55 394.55,0 C 478.99,365.48 308.93,56.08 256.03,56.08 203.11,56.08 32.78,364.88 58.75,417.03 Z m 68.04,-45.25 c -17.02,-34.17 94.6,-236.5 129.26,-236.5 34.67,0 146.1,202.7 129.26,236.5 -16.83,33.8 -241.5,34.17 -258.52,0 z"
       id="C" />
  </defs>
  <use
     xlink:href="#A"
     fill="url(#B)"
     id="use13"
     style="display:inline;fill:url(#B)"
     x="0"
     y="0"
     width="100%"
     height="100%"
     transform="matrix(0.16005981,0,0,0.16005981,-8.9752426,-8.9761541)" />
  <use
     xlink:href="#A"
     fill-opacity="0"
     stroke="#000000"
     stroke-opacity="0"
     id="use15"
     style="display:none"
     x="0"
     y="0"
     width="100%"
     height="100%"
     transform="translate(-223.99958,-223.99993)" />
  <use
     xlink:href="#C"
     fill="url(#B)"
     id="use17"
     style="display:inline;fill:url(#B)"
     x="0"
     y="0"
     width="100%"
     height="100%"
     transform="matrix(0.16005981,0,0,0.16005981,-8.9752426,-8.9761541)" />
  <use
     xlink:href="#C"
     fill-opacity="0"
     stroke="#000000"
     stroke-opacity="0"
     id="use19"
     style="display:none"
     x="0"
     y="0"
     width="100%"
     height="100%"
     transform="translate(-223.99958,-223.99993)" />
</svg>
